<svg xmlns="http://www.w3.org/2000/svg" width="562" height="562" viewBox="0 0 562 562"><rect width="100%" height="100%" fill="#DDDDDD"/><path fill="#999999" d="m127.755 262.29-1.91 11.28q1.8-.37 3.45-.54 1.65-.17 3.19-.17 4.27 0 7.54 1.27 3.26 1.28 5.47 3.53t3.34 5.27q1.12 3.02 1.12 6.5 0 4.32-1.52 7.88-1.52 3.56-4.22 6.09-2.69 2.54-6.39 3.92-3.69 1.39-8.04 1.39-2.55 0-4.84-.53-2.29-.52-4.29-1.4-2.01-.88-3.72-2.03-1.7-1.14-3.05-2.41l2.85-3.94q.9-1.28 2.36-1.28.94 0 1.91.6.98.6 2.23 1.32 1.26.71 2.97 1.31 1.7.6 4.1.6 2.55 0 4.5-.83 1.95-.82 3.25-2.3 1.29-1.49 1.95-3.53.65-2.04.65-4.44 0-4.43-2.57-6.92-2.56-2.5-7.59-2.5-3.86 0-7.91 1.43l-5.78-1.65 4.5-26.33h26.78v3.94q0 1.99-1.24 3.23t-4.2 1.24h-14.89Zm62.03-8.41-16.09 19.69-1.87 2.33q1.57-.79 3.39-1.22 1.82-.43 3.92-.43 3.07 0 5.98 1.01 2.91 1.01 5.12 3.06 2.21 2.04 3.56 5.08 1.35 3.03 1.35 7.08 0 3.79-1.39 7.11-1.38 3.32-3.9 5.8-2.51 2.47-6.05 3.9-3.55 1.42-7.82 1.42-4.35 0-7.8-1.39-3.45-1.38-5.89-3.88-2.44-2.49-3.73-6-1.29-3.5-1.29-7.78 0-3.82 1.55-7.86 1.56-4.03 4.82-8.38l12.94-17.36q.67-.9 1.97-1.54 1.29-.64 2.98-.64h8.25Zm-13.99 47.26q2.21 0 4.07-.75 1.85-.75 3.19-2.1 1.33-1.35 2.08-3.17.75-1.82.75-3.96 0-2.32-.71-4.18-.72-1.86-2.03-3.15-1.31-1.29-3.15-1.97-1.84-.68-4.05-.68t-4.01.75q-1.8.75-3.08 2.09-1.27 1.33-1.98 3.15-.72 1.81-.72 3.92 0 2.25.62 4.1.62 1.86 1.84 3.17 1.22 1.31 3.02 2.04 1.8.74 4.16.74Zm44.7-1.66h13.91q1.5 0 2.38.85.89.84.89 2.23v5.55h-37.21v-3.07q0-.94.4-1.97.39-1.04 1.26-1.86l16.46-16.5q2.06-2.1 3.69-4.01 1.63-1.91 2.72-3.79 1.09-1.87 1.67-3.81.58-1.93.58-4.06 0-1.95-.56-3.44-.56-1.48-1.6-2.49-1.03-1.01-2.47-1.52-1.44-.5-3.24-.5-1.66 0-3.06.46-1.41.47-2.49 1.32-1.09.84-1.84 1.97-.75 1.12-1.13 2.47-.64 1.73-1.65 2.29-1.01.56-2.92.26l-4.88-.86q.56-3.9 2.18-6.85 1.61-2.94 4.03-4.91 2.42-1.97 5.55-2.96t6.73-.99q3.75 0 6.86 1.1 3.12 1.11 5.33 3.13 2.21 2.03 3.45 4.88 1.24 2.85 1.24 6.33 0 3-.89 5.56-.88 2.55-2.36 4.87-1.48 2.32-3.47 4.5-1.98 2.18-4.16 4.43l-12.22 12.48q1.76-.52 3.5-.8 1.75-.29 3.32-.29Zm78.3-3.78-4.91 4.84-12.71-12.72-12.83 12.79-4.91-4.84 12.82-12.86-12.22-12.22 4.87-4.88 12.23 12.23 12.15-12.16 4.95 4.88-12.19 12.19 12.75 12.75Zm39.41-33.41-1.91 11.28q1.8-.37 3.45-.54 1.65-.17 3.19-.17 4.27 0 7.54 1.27 3.26 1.28 5.47 3.53t3.34 5.27q1.12 3.02 1.12 6.5 0 4.32-1.52 7.88-1.51 3.56-4.21 6.09-2.7 2.54-6.4 3.92-3.69 1.39-8.04 1.39-2.55 0-4.84-.53-2.29-.52-4.29-1.4-2.01-.88-3.72-2.03-1.7-1.14-3.05-2.41l2.85-3.94q.9-1.28 2.36-1.28.94 0 1.91.6.98.6 2.23 1.32 1.26.71 2.97 1.31 1.7.6 4.1.6 2.55 0 4.5-.83 1.95-.82 3.25-2.3 1.29-1.49 1.95-3.53.65-2.04.65-4.44 0-4.43-2.57-6.92-2.56-2.5-7.59-2.5-3.86 0-7.91 1.43l-5.78-1.65 4.5-26.33h26.78v3.94q0 1.99-1.24 3.23t-4.2 1.24h-14.89Zm62.03-8.41-16.09 19.69-1.88 2.33q1.58-.79 3.4-1.22 1.82-.43 3.92-.43 3.07 0 5.98 1.01 2.91 1.01 5.12 3.06 2.21 2.04 3.56 5.08 1.35 3.03 1.35 7.08 0 3.79-1.39 7.11-1.39 3.32-3.9 5.8-2.51 2.47-6.05 3.9-3.55 1.42-7.82 1.42-4.35 0-7.8-1.39-3.45-1.38-5.89-3.88-2.44-2.49-3.73-6-1.29-3.5-1.29-7.78 0-3.82 1.55-7.86 1.56-4.03 4.82-8.38l12.94-17.36q.67-.9 1.97-1.54 1.29-.64 2.98-.64h8.25Zm-13.99 47.26q2.21 0 4.07-.75 1.85-.75 3.19-2.1 1.33-1.35 2.08-3.17.75-1.82.75-3.96 0-2.32-.72-4.18-.71-1.86-2.02-3.15-1.31-1.29-3.15-1.97-1.84-.68-4.05-.68t-4.01.75q-1.8.75-3.08 2.09-1.27 1.33-1.99 3.15-.71 1.81-.71 3.92 0 2.25.62 4.1.62 1.86 1.84 3.17 1.22 1.31 3.02 2.04 1.8.74 4.16.74Zm44.7-1.66h13.91q1.5 0 2.38.85.88.84.88 2.23v5.55h-37.2v-3.07q0-.94.4-1.97.39-1.04 1.25-1.86l16.47-16.5q2.06-2.1 3.69-4.01 1.63-1.91 2.72-3.79 1.09-1.87 1.67-3.81.58-1.93.58-4.06 0-1.95-.56-3.44-.57-1.48-1.6-2.49-1.03-1.01-2.47-1.52-1.44-.5-3.25-.5-1.65 0-3.05.46-1.41.47-2.5 1.32-1.08.84-1.83 1.97-.75 1.12-1.13 2.47-.64 1.73-1.65 2.29-1.01.56-2.92.26l-4.88-.86q.56-3.9 2.18-6.85 1.61-2.94 4.03-4.91 2.42-1.97 5.55-2.96t6.73-.99q3.75 0 6.86 1.1 3.11 1.11 5.33 3.13 2.21 2.03 3.45 4.88 1.24 2.85 1.24 6.33 0 3-.89 5.56-.88 2.55-2.36 4.87-1.48 2.32-3.47 4.5-1.99 2.18-4.16 4.43l-12.22 12.48q1.76-.52 3.5-.8 1.75-.29 3.32-.29Z"/></svg>